<?xml version="1.0" standalone="no"?>
<!DOCTYPE svg PUBLIC "-//W3C//DTD SVG 20010904//EN"
 "http://www.w3.org/TR/2001/REC-SVG-20010904/DTD/svg10.dtd">
<svg version="1.0" xmlns="http://www.w3.org/2000/svg"
 width="3000.000000pt" height="3000.000000pt" viewBox="0 0 3000.000000 3000.000000"
 preserveAspectRatio="xMidYMid meet">

<g transform="translate(0.000000,3000.000000) scale(0.100000,-0.100000)"
fill="#000000" stroke="none">
<path d="M1650 18820 c-8 -5 -36 -10 -62 -10 -26 0 -80 -4 -120 -9 -82 -11
-191 -24 -383 -46 -71 -8 -161 -20 -200 -25 -38 -5 -128 -17 -200 -26 -145
-17 -186 -34 -222 -89 l-23 -35 0 -3635 0 -3636 48 -47 c26 -26 47 -56 47 -67
0 -19 8 -20 148 -23 152 -3 151 -3 148 38 0 8 14 24 32 35 70 44 66 -8 67 977
0 488 4 889 8 892 5 3 67 -4 138 -15 71 -11 161 -24 199 -29 251 -33 393 -50
485 -59 58 -6 152 -15 210 -21 398 -39 1153 -39 1460 0 41 5 118 14 170 20
168 20 405 67 575 113 61 16 124 33 140 37 139 35 415 144 600 237 550 278
948 665 1197 1165 60 121 133 300 163 403 9 33 21 71 25 85 13 38 57 245 69
325 32 212 36 265 36 555 0 346 -9 437 -72 718 -77 346 -221 653 -449 958 -74
98 -311 338 -424 428 -295 235 -661 425 -1090 565 -273 90 -647 172 -915 201
-60 7 -120 16 -133 21 -32 12 -1653 12 -1672 -1z m1265 -429 c279 -13 420 -28
660 -67 1150 -190 1917 -728 2205 -1549 56 -158 83 -281 121 -530 16 -105 16
-515 0 -630 -24 -171 -42 -280 -62 -365 -121 -504 -387 -918 -781 -1213 -240
-179 -474 -300 -782 -402 -251 -84 -419 -121 -776 -175 -227 -34 -695 -53
-988 -40 -306 13 -544 27 -642 40 -41 5 -122 14 -180 20 -94 10 -439 58 -580
80 -30 5 -73 12 -95 15 -22 4 -50 8 -62 11 l-23 4 0 2340 c0 1286 3 2341 8
2344 9 5 274 39 437 56 61 6 144 15 185 20 68 8 230 20 535 38 202 13 588 14
820 3z"/>
<path d="M11125 18329 c-209 -18 -453 -67 -655 -133 -740 -239 -1304 -798
-1549 -1533 -23 -70 -57 -188 -64 -223 -3 -14 -14 -70 -25 -125 -26 -129 -38
-222 -53 -422 -12 -163 -5 -358 22 -578 11 -88 55 -322 69 -370 5 -16 22 -70
36 -120 31 -100 107 -292 155 -388 113 -225 243 -403 433 -592 180 -179 351
-303 579 -419 138 -70 336 -149 442 -176 17 -4 64 -17 105 -28 41 -11 104 -25
140 -31 36 -7 85 -16 110 -21 235 -46 803 -46 1098 0 158 25 204 34 309 61
408 105 743 282 1011 534 116 108 112 153 -30 305 -91 97 -109 109 -161 110
-49 0 -75 -14 -172 -95 -419 -350 -963 -520 -1608 -502 -258 7 -462 40 -667
107 -489 160 -880 477 -1126 915 -61 108 -147 311 -174 410 -5 17 -15 55 -23
85 -35 130 -72 368 -65 430 l3 35 943 3 943 2 25 -27 c156 -168 217 -199 370
-191 110 5 186 41 263 123 65 70 96 127 117 213 43 181 -31 380 -180 481 -191
131 -431 77 -563 -126 l-34 -53 -932 0 c-647 0 -936 3 -944 11 -6 6 -7 26 -3
52 5 23 13 74 20 112 111 649 493 1190 1040 1476 245 128 470 195 803 239 97
12 459 13 541 1 34 -5 99 -15 146 -21 372 -52 758 -220 1049 -457 148 -121
168 -133 218 -133 30 0 55 7 76 22 58 40 199 173 213 200 19 37 17 82 -5 127
-25 48 -170 169 -331 276 -165 108 -256 156 -495 256 -75 31 -321 100 -460
128 -270 55 -662 75 -960 50z"/>
<path d="M21675 18325 c-306 -30 -628 -113 -868 -224 -37 -17 -69 -31 -71 -31
-2 0 -50 -25 -107 -56 -258 -140 -529 -364 -706 -585 -139 -172 -289 -431
-371 -639 -147 -372 -210 -807 -184 -1252 7 -107 16 -221 22 -253 27 -163 33
-196 51 -275 80 -342 218 -645 418 -915 87 -118 334 -368 441 -447 382 -280
794 -437 1315 -500 129 -15 616 -15 765 1 601 62 1048 237 1430 559 112 95
142 133 142 186 0 51 -27 93 -126 194 -90 91 -92 92 -139 92 -58 0 -75 -8
-147 -70 -96 -83 -185 -146 -324 -230 -49 -30 -163 -85 -271 -131 -168 -71
-457 -137 -695 -159 -669 -60 -1254 105 -1705 481 -365 305 -615 777 -684
1289 -42 312 -32 587 35 905 45 218 149 482 262 667 103 170 274 366 432 494
260 212 609 369 950 429 202 35 564 47 723 25 40 -6 108 -15 152 -21 80 -11
259 -54 351 -84 268 -88 501 -217 726 -401 104 -86 136 -104 183 -104 52 0 80
19 192 124 164 155 155 197 -87 391 -382 307 -909 500 -1489 545 -174 13 -451
11 -616 -5z"/>
<path d="M27255 18325 c-563 -56 -1046 -253 -1454 -595 -175 -147 -340 -339
-469 -545 -60 -96 -172 -317 -172 -338 0 -7 -4 -17 -9 -22 -8 -10 -72 -183
-85 -235 -4 -14 -18 -65 -31 -115 -21 -81 -34 -142 -65 -324 -6 -30 -10 -73
-10 -96 0 -22 -5 -46 -12 -53 -9 -9 -270 -12 -1115 -12 l-1102 0 -35 55 c-50
78 -111 133 -186 169 -60 28 -73 31 -165 31 -89 -1 -106 -4 -155 -29 -77 -39
-114 -69 -158 -129 -60 -80 -83 -148 -89 -254 -6 -103 4 -159 45 -243 35 -74
126 -164 199 -197 51 -24 71 -27 163 -27 97 -1 110 2 165 29 37 19 87 58 132
103 l72 72 1104 0 c884 0 1107 -3 1115 -13 6 -7 13 -48 17 -92 18 -250 65
-484 144 -715 170 -498 480 -903 906 -1185 349 -230 723 -361 1190 -417 128
-15 616 -15 765 1 559 57 982 211 1351 492 103 79 197 166 215 200 33 64 15
106 -98 227 -94 102 -108 111 -169 112 -50 0 -58 -5 -199 -120 -276 -225 -631
-379 -1030 -444 -327 -54 -708 -47 -997 18 -165 38 -189 44 -277 77 -303 114
-506 241 -720 448 -272 265 -448 574 -544 956 -48 190 -79 424 -59 444 8 8
294 11 942 11 l930 0 70 -76 c89 -100 163 -137 278 -142 128 -7 208 24 301
116 112 111 160 284 121 435 -65 251 -294 391 -517 316 -98 -33 -175 -95 -232
-186 l-26 -43 -923 0 c-507 0 -928 4 -935 8 -13 9 -13 8 24 207 119 648 515
1183 1078 1459 241 117 439 174 759 216 99 13 446 13 540 0 229 -31 239 -33
477 -95 55 -15 269 -101 330 -133 177 -93 315 -183 430 -283 163 -140 207
-136 380 34 97 95 100 99 100 147 0 51 -25 90 -105 159 -318 279 -719 471
-1180 566 -300 61 -703 81 -1020 50z"/>
<path d="M7435 18320 c-11 -4 -33 -22 -50 -40 l-30 -31 -3 -2452 c-2 -2320 -1
-2454 15 -2486 34 -65 59 -76 200 -79 141 -4 167 3 213 55 l30 34 0 2456 0
2456 -22 34 c-32 52 -68 63 -210 62 -68 0 -132 -4 -143 -9z"/>
<path d="M15665 18274 c-202 -11 -372 -26 -775 -69 -412 -44 -431 -48 -469
-116 l-21 -37 0 -2413 c0 -2405 0 -2414 20 -2447 35 -57 92 -75 224 -70 130 5
166 19 196 78 19 38 20 58 20 691 l0 652 63 -7 c34 -3 98 -10 142 -15 879
-102 1497 -66 2032 116 40 14 79 23 88 21 9 -2 35 -44 59 -98 64 -141 124
-271 215 -464 28 -59 51 -110 51 -111 0 -2 29 -64 65 -140 36 -75 65 -138 65
-140 0 -1 26 -58 59 -126 61 -130 95 -204 141 -305 32 -71 64 -99 134 -119 64
-17 222 -29 275 -20 58 10 101 54 101 106 0 37 -8 57 -100 254 -23 50 -53 115
-67 145 -14 30 -38 82 -53 115 -15 33 -41 89 -58 125 -16 36 -51 109 -76 163
-25 55 -46 100 -46 102 0 1 -31 69 -70 149 -38 81 -70 149 -70 151 0 2 -20 45
-44 97 -24 51 -64 138 -90 193 -25 55 -51 108 -56 117 -17 30 -11 42 51 93 33
28 104 95 156 150 348 362 523 793 523 1284 0 163 -10 252 -47 421 -69 312
-201 555 -426 787 -226 233 -457 378 -812 511 -151 57 -372 112 -560 141 -38
5 -104 15 -145 22 -72 10 -572 20 -695 13z m715 -468 c179 -24 295 -51 465
-108 149 -49 316 -130 444 -215 100 -67 271 -229 340 -322 136 -184 214 -398
242 -664 19 -184 -10 -440 -72 -629 -84 -255 -223 -450 -440 -613 -205 -154
-540 -283 -849 -325 -47 -6 -112 -16 -146 -21 -82 -12 -772 -12 -887 1 -51 5
-155 17 -232 25 -185 20 -346 42 -368 51 -16 6 -17 87 -17 1379 0 1086 3 1375
13 1382 6 6 44 14 82 18 39 4 104 10 145 15 130 13 442 40 515 44 156 8 663
-3 765 -18z"/>
</g>
</svg>
